<mxfile host="app.diagrams.net" modified="2023-08-24T15:26:28.750Z" agent="Mozilla/5.0 (Windows NT 10.0; Win64; x64) AppleWebKit/537.36 (KHTML, like Gecko) Chrome/116.0.0.0 Safari/537.36" etag="39DHF9qgA2oP5IgbAzFY" version="21.6.9" type="device">
  <diagram id="prtHgNgQTEPvFCAcTncT" name="Page-1">
    <mxGraphModel dx="794" dy="432" grid="1" gridSize="10" guides="1" tooltips="1" connect="1" arrows="1" fold="1" page="1" pageScale="1" pageWidth="827" pageHeight="1169" background="#ffffff" math="0" shadow="0">
      <root>
        <mxCell id="0" />
        <mxCell id="1" parent="0" />
        <mxCell id="5sq4bgUqjRFgzolprqc3-74" value="" style="endArrow=none;dashed=1;html=1;rounded=0;" parent="1" edge="1">
          <mxGeometry width="50" height="50" relative="1" as="geometry">
            <mxPoint x="80" y="200" as="sourcePoint" />
            <mxPoint x="1110" y="190" as="targetPoint" />
          </mxGeometry>
        </mxCell>
        <mxCell id="5sq4bgUqjRFgzolprqc3-4" value="" style="rounded=0;whiteSpace=wrap;html=1;" parent="1" vertex="1">
          <mxGeometry x="80" y="85" width="120" height="60" as="geometry" />
        </mxCell>
        <mxCell id="5sq4bgUqjRFgzolprqc3-99" value="" style="edgeStyle=orthogonalEdgeStyle;rounded=0;orthogonalLoop=1;jettySize=auto;html=1;strokeColor=#0000FF;" parent="1" source="5sq4bgUqjRFgzolprqc3-1" target="5sq4bgUqjRFgzolprqc3-89" edge="1">
          <mxGeometry relative="1" as="geometry" />
        </mxCell>
        <mxCell id="5sq4bgUqjRFgzolprqc3-1" value="Collects clinical data" style="rounded=1;whiteSpace=wrap;html=1;fontColor=#0000FF;" parent="1" vertex="1">
          <mxGeometry x="210" y="85" width="90" height="50" as="geometry" />
        </mxCell>
        <mxCell id="5sq4bgUqjRFgzolprqc3-2" value="ISARIC4C CCP" style="text;html=1;strokeColor=none;fillColor=none;align=center;verticalAlign=middle;whiteSpace=wrap;rounded=0;" parent="1" vertex="1">
          <mxGeometry x="102.5" y="97.5" width="75" height="35" as="geometry" />
        </mxCell>
        <mxCell id="5sq4bgUqjRFgzolprqc3-3" value="Data Controller&amp;nbsp; Oxford" style="text;html=1;strokeColor=none;fillColor=none;align=center;verticalAlign=middle;whiteSpace=wrap;rounded=0;" parent="1" vertex="1">
          <mxGeometry x="90" y="50" width="110" height="30" as="geometry" />
        </mxCell>
        <mxCell id="hTJWGszqOdJTXl-uLMS_-2" value="" style="edgeStyle=orthogonalEdgeStyle;rounded=0;orthogonalLoop=1;jettySize=auto;html=1;entryX=0;entryY=0.5;entryDx=0;entryDy=0;exitX=0.5;exitY=1;exitDx=0;exitDy=0;" parent="1" source="5sq4bgUqjRFgzolprqc3-19" target="5sq4bgUqjRFgzolprqc3-9" edge="1">
          <mxGeometry relative="1" as="geometry">
            <mxPoint x="600" y="470" as="targetPoint" />
          </mxGeometry>
        </mxCell>
        <mxCell id="5sq4bgUqjRFgzolprqc3-8" value="NHS England" style="rounded=0;whiteSpace=wrap;html=1;" parent="1" vertex="1">
          <mxGeometry x="85" y="330" width="120" height="60" as="geometry" />
        </mxCell>
        <mxCell id="5sq4bgUqjRFgzolprqc3-9" value="Links data&amp;nbsp;" style="rounded=1;whiteSpace=wrap;html=1;" parent="1" vertex="1">
          <mxGeometry x="680" y="335" width="110" height="50" as="geometry" />
        </mxCell>
        <mxCell id="5sq4bgUqjRFgzolprqc3-110" style="edgeStyle=orthogonalEdgeStyle;rounded=0;orthogonalLoop=1;jettySize=auto;html=1;entryX=0.715;entryY=1.1;entryDx=0;entryDy=0;entryPerimeter=0;" parent="1" source="5sq4bgUqjRFgzolprqc3-12" target="5sq4bgUqjRFgzolprqc3-57" edge="1">
          <mxGeometry relative="1" as="geometry">
            <Array as="points">
              <mxPoint x="980" y="360" />
              <mxPoint x="980" y="202" />
            </Array>
          </mxGeometry>
        </mxCell>
        <mxCell id="5sq4bgUqjRFgzolprqc3-12" value="Return extracts" style="rounded=1;whiteSpace=wrap;html=1;" parent="1" vertex="1">
          <mxGeometry x="850" y="335" width="110" height="50" as="geometry" />
        </mxCell>
        <mxCell id="5sq4bgUqjRFgzolprqc3-19" value="Send ISARIC IDs and NHS numbers to NHSE" style="rounded=1;whiteSpace=wrap;html=1;" parent="1" vertex="1">
          <mxGeometry x="551" y="220" width="120" height="60" as="geometry" />
        </mxCell>
        <mxCell id="5sq4bgUqjRFgzolprqc3-105" value="" style="edgeStyle=orthogonalEdgeStyle;rounded=0;orthogonalLoop=1;jettySize=auto;html=1;" parent="1" source="5sq4bgUqjRFgzolprqc3-26" edge="1">
          <mxGeometry relative="1" as="geometry">
            <mxPoint x="550" y="250.10000000000002" as="targetPoint" />
          </mxGeometry>
        </mxCell>
        <mxCell id="5sq4bgUqjRFgzolprqc3-26" value="Receives data" style="rounded=1;whiteSpace=wrap;html=1;" parent="1" vertex="1">
          <mxGeometry x="327.5" y="230" width="105" height="40" as="geometry" />
        </mxCell>
        <mxCell id="5sq4bgUqjRFgzolprqc3-36" value="" style="group" parent="1" vertex="1" connectable="0">
          <mxGeometry x="80" y="200" width="120" height="90" as="geometry" />
        </mxCell>
        <mxCell id="5sq4bgUqjRFgzolprqc3-24" value="EDRIS (Public Health Scotland)" style="rounded=0;whiteSpace=wrap;html=1;" parent="5sq4bgUqjRFgzolprqc3-36" vertex="1">
          <mxGeometry y="30" width="120" height="60" as="geometry" />
        </mxCell>
        <mxCell id="5sq4bgUqjRFgzolprqc3-25" value="Data Processor" style="text;html=1;align=center;verticalAlign=middle;resizable=0;points=[];autosize=1;strokeColor=none;fillColor=none;" parent="5sq4bgUqjRFgzolprqc3-36" vertex="1">
          <mxGeometry x="5" width="110" height="30" as="geometry" />
        </mxCell>
        <mxCell id="5sq4bgUqjRFgzolprqc3-52" value="&lt;font color=&quot;#ff8000&quot;&gt;DPA with PHS&lt;/font&gt;" style="text;html=1;strokeColor=none;fillColor=none;align=center;verticalAlign=middle;whiteSpace=wrap;rounded=0;" parent="1" vertex="1">
          <mxGeometry x="20" y="180" width="60" height="30" as="geometry" />
        </mxCell>
        <mxCell id="5sq4bgUqjRFgzolprqc3-53" value="&lt;font color=&quot;#ff8000&quot;&gt;DARS with ISARIC4C&lt;/font&gt;" style="text;html=1;strokeColor=none;fillColor=none;align=center;verticalAlign=middle;whiteSpace=wrap;rounded=0;" parent="1" vertex="1">
          <mxGeometry x="20" y="320" width="60" height="30" as="geometry" />
        </mxCell>
        <mxCell id="5sq4bgUqjRFgzolprqc3-58" value="" style="group" parent="1" vertex="1" connectable="0">
          <mxGeometry x="920" y="150" width="150" height="48.75" as="geometry" />
        </mxCell>
        <mxCell id="5sq4bgUqjRFgzolprqc3-54" value="" style="endArrow=none;html=1;rounded=0;" parent="5sq4bgUqjRFgzolprqc3-58" edge="1">
          <mxGeometry width="50" height="50" relative="1" as="geometry">
            <mxPoint as="sourcePoint" />
            <mxPoint x="107.03846153846153" as="targetPoint" />
          </mxGeometry>
        </mxCell>
        <mxCell id="5sq4bgUqjRFgzolprqc3-55" value="" style="endArrow=none;html=1;rounded=0;" parent="5sq4bgUqjRFgzolprqc3-58" edge="1">
          <mxGeometry width="50" height="50" relative="1" as="geometry">
            <mxPoint y="44.03225806451613" as="sourcePoint" />
            <mxPoint as="targetPoint" />
          </mxGeometry>
        </mxCell>
        <mxCell id="5sq4bgUqjRFgzolprqc3-56" value="" style="endArrow=none;html=1;rounded=0;" parent="5sq4bgUqjRFgzolprqc3-58" edge="1">
          <mxGeometry width="50" height="50" relative="1" as="geometry">
            <mxPoint y="44.03225806451613" as="sourcePoint" />
            <mxPoint x="107.03846153846153" y="44.03225806451613" as="targetPoint" />
          </mxGeometry>
        </mxCell>
        <mxCell id="5sq4bgUqjRFgzolprqc3-57" value="Scottish National&lt;br&gt;&amp;nbsp;safehaven" style="text;html=1;align=center;verticalAlign=middle;resizable=0;points=[];autosize=1;strokeColor=none;fillColor=none;" parent="5sq4bgUqjRFgzolprqc3-58" vertex="1">
          <mxGeometry x="10" y="6.008064516129032" width="110" height="40" as="geometry" />
        </mxCell>
        <mxCell id="5sq4bgUqjRFgzolprqc3-59" value="Provision ISARIC4C data with NHSE-linked data" style="rounded=1;whiteSpace=wrap;html=1;" parent="1" vertex="1">
          <mxGeometry x="1080" y="143.51" width="100" height="65" as="geometry" />
        </mxCell>
        <mxCell id="5sq4bgUqjRFgzolprqc3-60" value="&lt;font color=&quot;#ff8000&quot;&gt;Data access via EDRIS as per DARS&lt;/font&gt;" style="text;html=1;strokeColor=none;fillColor=none;align=center;verticalAlign=middle;whiteSpace=wrap;rounded=0;" parent="1" vertex="1">
          <mxGeometry x="977" y="115" width="103" height="30" as="geometry" />
        </mxCell>
        <mxCell id="5sq4bgUqjRFgzolprqc3-63" value="&lt;font&gt;Study ID, NHS numbers, clinical data&lt;/font&gt;" style="text;html=1;strokeColor=none;fillColor=none;align=center;verticalAlign=middle;whiteSpace=wrap;rounded=0;fontColor=#000000;" parent="1" vertex="1">
          <mxGeometry x="440" y="145" width="60" height="30" as="geometry" />
        </mxCell>
        <mxCell id="5sq4bgUqjRFgzolprqc3-68" value="" style="endArrow=classic;html=1;rounded=0;exitX=1;exitY=0.5;exitDx=0;exitDy=0;entryX=0;entryY=0.5;entryDx=0;entryDy=0;" parent="1" source="5sq4bgUqjRFgzolprqc3-9" target="5sq4bgUqjRFgzolprqc3-12" edge="1">
          <mxGeometry width="50" height="50" relative="1" as="geometry">
            <mxPoint x="550" y="290" as="sourcePoint" />
            <mxPoint x="600" y="240" as="targetPoint" />
          </mxGeometry>
        </mxCell>
        <mxCell id="5sq4bgUqjRFgzolprqc3-75" value="" style="endArrow=none;dashed=1;html=1;rounded=0;" parent="1" edge="1">
          <mxGeometry width="50" height="50" relative="1" as="geometry">
            <mxPoint x="80" y="310" as="sourcePoint" />
            <mxPoint x="1111" y="300" as="targetPoint" />
          </mxGeometry>
        </mxCell>
        <mxCell id="5sq4bgUqjRFgzolprqc3-76" value="" style="endArrow=none;dashed=1;html=1;rounded=0;" parent="1" edge="1">
          <mxGeometry width="50" height="50" relative="1" as="geometry">
            <mxPoint x="80" y="420" as="sourcePoint" />
            <mxPoint x="1111" y="410" as="targetPoint" />
          </mxGeometry>
        </mxCell>
        <mxCell id="5sq4bgUqjRFgzolprqc3-100" value="" style="edgeStyle=orthogonalEdgeStyle;rounded=0;orthogonalLoop=1;jettySize=auto;html=1;strokeColor=#0000FF;" parent="1" source="5sq4bgUqjRFgzolprqc3-89" target="5sq4bgUqjRFgzolprqc3-26" edge="1">
          <mxGeometry relative="1" as="geometry" />
        </mxCell>
        <mxCell id="5sq4bgUqjRFgzolprqc3-89" value="Send data to EDRIS" style="whiteSpace=wrap;html=1;rounded=1;" parent="1" vertex="1">
          <mxGeometry x="330" y="85" width="100" height="50" as="geometry" />
        </mxCell>
        <mxCell id="5sq4bgUqjRFgzolprqc3-111" value="" style="edgeStyle=orthogonalEdgeStyle;rounded=0;orthogonalLoop=1;jettySize=auto;html=1;" parent="1" source="5sq4bgUqjRFgzolprqc3-57" target="5sq4bgUqjRFgzolprqc3-59" edge="1">
          <mxGeometry relative="1" as="geometry" />
        </mxCell>
        <mxCell id="5sq4bgUqjRFgzolprqc3-123" value="&lt;font&gt;ISARIC ID, NHS numbers&lt;/font&gt;" style="text;html=1;strokeColor=none;fillColor=none;align=center;verticalAlign=middle;whiteSpace=wrap;rounded=0;fontColor=#000000;" parent="1" vertex="1">
          <mxGeometry x="670" y="270" width="70" height="30" as="geometry" />
        </mxCell>
        <mxCell id="5sq4bgUqjRFgzolprqc3-124" value="&lt;font&gt;ISARIC ID, linked NHSE data&lt;/font&gt;" style="text;html=1;strokeColor=none;fillColor=none;align=center;verticalAlign=middle;whiteSpace=wrap;rounded=0;fontColor=#000000;" parent="1" vertex="1">
          <mxGeometry x="1010" y="320" width="100" height="30" as="geometry" />
        </mxCell>
        <mxCell id="hTJWGszqOdJTXl-uLMS_-4" value="" style="group" parent="1" vertex="1" connectable="0">
          <mxGeometry x="1200" y="120" width="280" height="280" as="geometry" />
        </mxCell>
        <mxCell id="5sq4bgUqjRFgzolprqc3-77" value="" style="whiteSpace=wrap;html=1;aspect=fixed;" parent="hTJWGszqOdJTXl-uLMS_-4" vertex="1">
          <mxGeometry width="280" height="280" as="geometry" />
        </mxCell>
        <mxCell id="5sq4bgUqjRFgzolprqc3-78" value="&lt;b&gt;Key&lt;/b&gt;" style="text;html=1;strokeColor=none;fillColor=none;align=center;verticalAlign=middle;whiteSpace=wrap;rounded=0;" parent="hTJWGszqOdJTXl-uLMS_-4" vertex="1">
          <mxGeometry x="11" y="5" width="60" height="30" as="geometry" />
        </mxCell>
        <mxCell id="5sq4bgUqjRFgzolprqc3-79" value="" style="rounded=0;whiteSpace=wrap;html=1;" parent="hTJWGszqOdJTXl-uLMS_-4" vertex="1">
          <mxGeometry x="30" y="40" width="70" height="40" as="geometry" />
        </mxCell>
        <mxCell id="5sq4bgUqjRFgzolprqc3-80" value="" style="rounded=1;whiteSpace=wrap;html=1;" parent="hTJWGszqOdJTXl-uLMS_-4" vertex="1">
          <mxGeometry x="30" y="95" width="70" height="35" as="geometry" />
        </mxCell>
        <mxCell id="5sq4bgUqjRFgzolprqc3-81" value="" style="endArrow=none;html=1;rounded=0;fontColor=#0000FF;strokeColor=#0000FF;" parent="hTJWGszqOdJTXl-uLMS_-4" edge="1">
          <mxGeometry width="50" height="50" relative="1" as="geometry">
            <mxPoint x="35" y="214.5" as="sourcePoint" />
            <mxPoint x="95" y="214.5" as="targetPoint" />
          </mxGeometry>
        </mxCell>
        <mxCell id="5sq4bgUqjRFgzolprqc3-83" value="Contracts and Agreements" style="text;html=1;strokeColor=none;fillColor=none;align=center;verticalAlign=middle;whiteSpace=wrap;rounded=0;fontColor=#FF8000;" parent="hTJWGszqOdJTXl-uLMS_-4" vertex="1">
          <mxGeometry x="30" y="240" width="180" height="30" as="geometry" />
        </mxCell>
        <mxCell id="5sq4bgUqjRFgzolprqc3-84" value="" style="group" parent="hTJWGszqOdJTXl-uLMS_-4" vertex="1" connectable="0">
          <mxGeometry x="30" y="160" width="90" height="30" as="geometry" />
        </mxCell>
        <mxCell id="5sq4bgUqjRFgzolprqc3-85" value="" style="endArrow=none;html=1;rounded=0;" parent="5sq4bgUqjRFgzolprqc3-84" edge="1">
          <mxGeometry width="50" height="50" relative="1" as="geometry">
            <mxPoint as="sourcePoint" />
            <mxPoint x="76.15384615384615" as="targetPoint" />
          </mxGeometry>
        </mxCell>
        <mxCell id="5sq4bgUqjRFgzolprqc3-86" value="" style="endArrow=none;html=1;rounded=0;" parent="5sq4bgUqjRFgzolprqc3-84" edge="1">
          <mxGeometry width="50" height="50" relative="1" as="geometry">
            <mxPoint y="26.666666666666664" as="sourcePoint" />
            <mxPoint as="targetPoint" />
          </mxGeometry>
        </mxCell>
        <mxCell id="5sq4bgUqjRFgzolprqc3-87" value="" style="endArrow=none;html=1;rounded=0;" parent="5sq4bgUqjRFgzolprqc3-84" edge="1">
          <mxGeometry width="50" height="50" relative="1" as="geometry">
            <mxPoint y="26.666666666666664" as="sourcePoint" />
            <mxPoint x="76.15384615384615" y="26.666666666666664" as="targetPoint" />
          </mxGeometry>
        </mxCell>
        <mxCell id="5sq4bgUqjRFgzolprqc3-116" value="Entity" style="text;html=1;strokeColor=none;fillColor=none;align=center;verticalAlign=middle;whiteSpace=wrap;rounded=0;" parent="hTJWGszqOdJTXl-uLMS_-4" vertex="1">
          <mxGeometry x="110" y="40" width="60" height="30" as="geometry" />
        </mxCell>
        <mxCell id="5sq4bgUqjRFgzolprqc3-117" value="Process" style="text;html=1;strokeColor=none;fillColor=none;align=center;verticalAlign=middle;whiteSpace=wrap;rounded=0;" parent="hTJWGszqOdJTXl-uLMS_-4" vertex="1">
          <mxGeometry x="120" y="95" width="60" height="30" as="geometry" />
        </mxCell>
        <mxCell id="5sq4bgUqjRFgzolprqc3-118" value="Scottish National Safehaven" style="text;html=1;strokeColor=none;fillColor=none;align=left;verticalAlign=middle;whiteSpace=wrap;rounded=0;" parent="hTJWGszqOdJTXl-uLMS_-4" vertex="1">
          <mxGeometry x="120" y="155" width="100" height="30" as="geometry" />
        </mxCell>
        <mxCell id="5sq4bgUqjRFgzolprqc3-119" value="Unconsented data - COPI notice" style="text;html=1;strokeColor=none;fillColor=none;align=left;verticalAlign=middle;whiteSpace=wrap;rounded=0;" parent="hTJWGszqOdJTXl-uLMS_-4" vertex="1">
          <mxGeometry x="120" y="200" width="160" height="30" as="geometry" />
        </mxCell>
      </root>
    </mxGraphModel>
  </diagram>
</mxfile>
